<?xml version="1.0" encoding="UTF-8" standalone="no"?>
<!DOCTYPE svg PUBLIC "-//W3C//DTD SVG 1.1//EN" "http://www.w3.org/Graphics/SVG/1.1/DTD/svg11.dtd">
<svg width="100%" height="100%" viewBox="0 0 1024 1024" version="1.1" xmlns="http://www.w3.org/2000/svg" xmlns:xlink="http://www.w3.org/1999/xlink" xml:space="preserve" xmlns:serif="http://www.serif.com/" style="fill-rule:evenodd;clip-rule:evenodd;stroke-linejoin:round;stroke-miterlimit:2;">
    <g transform="matrix(0.1,0,0,-0.1,0,1024)">
        <g transform="matrix(1.54267,2.56817e-19,-3.46626e-19,1.55077,5006.36,-11564.1)">
            <path d="M893,9265C893,9238 895,9227 897,9243C899,9258 899,9280 897,9293C895,9305 893,9293 893,9265Z" style="fill:url(#_Linear1);fill-rule:nonzero;"/>
        </g>
        <g transform="matrix(1.54267,2.56817e-19,-3.46626e-19,1.55077,-1899.3,-4139.89)">
            <path d="M5343.4,6951.15L5682.89,6944.57L5721,7047C5794,7178 5928,7289 6065,7333C6172,7368 6240,7372 6350,7350C6509,7320 6516.87,7306.22 6659.33,7206.22C6690.45,7184.38 6713.66,7147.06 6735.81,7107.56C6773.8,7039.81 6801.12,6956.09 6813.45,6874.28C6825.13,6796.76 6828.19,6719.17 6804.47,6662.05C6639.72,6265.38 6659.07,6357.94 6583.66,6253.16C6580.74,6249.11 6406.36,6042.56 6211.76,6023.57C6170.76,6019.57 5354,5999 4475,5999C2893,5998 2875,5998 2833,5978C2783,5955 2750,5917 2750,5884C2750,5849 2809,5794 2860,5780C2891,5771 2948,5769 3048,5774C3208,5781 3765,5768 4275,5745C4592,5731 5045,5719 5800,5704C6017,5699 6149,5701 6225,5709C6622.49,5702.83 6980.14,6061.91 6987.14,6063.91C6986.35,6071.87 7166.74,6327.8 7175.74,6357.8C7180.74,6374.8 7227.73,6564.44 7228,6577C7228.25,6588.39 7230.51,6759.74 7224.08,6881.03C7222.21,6916.31 7219.61,6947.36 7216,6969C7163,7271 6931,7553 6621,7691C6491,7748 6436,7759 6260,7762C6095,7765 6035,7759 5973,7734C5888,7698 5773,7637 5704,7589C5611,7525 5473,7381 5436,7310C5331.3,7184.74 5343.4,6951.15 5343.4,6951.15Z" style="fill:url(#_Linear2);"/>
        </g>
        <g transform="matrix(1.54267,2.56817e-19,-3.46626e-19,1.55077,-1899.3,-4139.89)">
            <path d="M5127.8,6948.32C5130.02,7111.72 5176.03,7333.86 5299.05,7467.73C5371.36,7546.41 5525,7693 5662,7783C5747,7838 5874,7896 5965,7920C6050,7943 6283,7961 6312,7948C6321,7944 6337,7941 6347,7942C6376,7946 6480,7929 6545,7910C6638,7883 6707,7853 6815,7793C6900,7745 6934,7718 7045,7606C7182,7469 7221,7418 7288,7285C7379,7106 7416,6924 7407,6692C7404,6609 7397,6544 7391,6536C7385,6529 7347,6382 7337,6367C7327,6352 7276.89,6216.41 7273.75,6209.92C7267.82,6197.68 7208.35,6061.39 7175.59,6029.23C7167.97,6008.64 7074.23,5918.27 7037,5883C6866,5721 6660,5621 6349,5549C6226,5521 5945,5513 5300,5521C5039,5524 4822,5525 4818,5523C4813,5520 4810,5052 4810,4482C4810,3912 4805,3376 4800,3291C4795,3206 4792,3134 4795,3132C4797,3129 4812,3136 4827,3146C4842,3156 4920,3197 4999,3237C5079,3277 5188,3340 5242,3376C5409,3487 5588,3674 5639,3791C5650,3815 5669,3873 5682,3920C5705,4005 5705,4006 5703,4608L5699.9,5149.65C5699.9,5149.65 5717.34,5149.22 5745.67,5148.84C5849.96,5147.44 6101.81,5146.68 6174.49,5170.38C6470.49,5170.94 6753,5240 7020,5375C7196,5465 7411,5660 7537,5845C7704,6092 7780,6302 7810,6602C7831,6818 7793,7080 7710,7286C7610,7537 7508,7702 7356,7859C7101,8122 6750,8312 6448,8350C6318,8366 6052,8361 5950,8340C5903,8330 5811,8302 5745,8276C5516,8186 5385,8101 5199,7918C5021,7744 4899.97,7598 4826.97,7382C4727.01,7086.24 4740.91,6932.26 4803.01,6939.59C4808.34,6947.79 4848.98,6941.24 4905.03,6941.36C4979.63,6941.52 5075.18,6939.46 5127.8,6948.32ZM5396.91,5151.78C5396.91,5151.78 5400.98,4076.94 5386.98,4067.94C5383.72,3906.11 5196.87,3765.59 5165.6,3783.81C5149.01,3753.78 5164.58,5056.18 5173.58,5151.18L5396.91,5151.78Z" style="fill:url(#_Linear3);"/>
        </g>
        <g transform="matrix(1.54267,2.56817e-19,-3.46626e-19,1.55077,-1899.3,-4139.89)">
            <path d="M4136,7830L3528,7825L3494,7786C3442,7726 3452,7664 3518,7630C3535,7622 3690,7619 4118,7620L4694,7621L4718,7643C4763,7684 4860,7808 4860,7824C4860,7837 4849,7840 4803,7838C4771,7836 4471,7833 4136,7830Z" style="fill:url(#_Linear4);fill-rule:nonzero;"/>
        </g>
        <g transform="matrix(1.54267,2.56817e-19,-3.46626e-19,1.55077,-1899.3,-4139.89)">
            <path d="M2723,7362C2692,7357 2620,7276 2620,7246C2620,7232 2633,7208 2650,7191L2681,7161L3613,7158C4126,7156 4550,7156 4555,7158C4569,7161 4647,7290 4655,7322C4662,7348 4661,7348 4598,7354C4530,7360 2759,7368 2723,7362Z" style="fill:url(#_Linear5);fill-rule:nonzero;"/>
        </g>
        <g transform="matrix(1.54267,2.56817e-19,-3.46626e-19,1.55077,-1899.3,-4139.89)">
            <path d="M3768,6903C3774,6901 3786,6901 3793,6903C3799,6906 3794,6908 3780,6908C3766,6908 3761,6906 3768,6903Z" style="fill:url(#_Linear6);fill-rule:nonzero;"/>
        </g>
        <g transform="matrix(1.54267,2.56817e-19,-3.46626e-19,1.55077,-1899.3,-4139.89)">
            <path d="M4539,5526C4537,5523 4215,5521 3825,5519L3115,5517L3078,5494C3030,5463 3012,5414 3034,5371C3068,5306 3020,5310 3838,5310L4582,5310L4610,5338C4630,5359 4640,5380 4644,5416C4648,5443 4652,5480 4655,5498L4659,5530L4601,5530C4569,5530 4541,5528 4539,5526Z" style="fill:url(#_Linear7);fill-rule:nonzero;"/>
        </g>
        <g transform="matrix(1.54267,2.56817e-19,-3.46626e-19,1.55077,-1899.3,-4139.89)">
            <path d="M3898,5042C3877,5019 3860,4998 3860,4995C3860,4978 3901,4913 3919,4903C3933,4894 4021,4890 4227,4889C4557,4886 4552,4885 4620,4971C4665,5028 4669,5045 4641,5059C4630,5065 4477,5072 4279,5076L3935,5083L3898,5042Z" style="fill:url(#_Linear8);fill-rule:nonzero;"/>
        </g>
        <g transform="matrix(15.4267,2.56817e-18,3.46626e-18,-15.5077,-1899.3,11740)">
            <rect x="504.962" y="634.849" width="7.013" height="1.348" style="fill:url(#_Linear9);"/>
        </g>
        <g transform="matrix(15.4267,2.56817e-18,3.46626e-18,-15.5077,-1899.3,11740)">
            <rect x="503.749" y="597.914" width="5.692" height="0.662" style="fill:url(#_Linear10);"/>
        </g>
        <g transform="matrix(15.4267,2.56817e-18,3.46626e-18,-15.5077,-1899.3,11740)">
            <rect x="500.226" y="626.91" width="6.761" height="0.013" style="fill:url(#_Linear11);"/>
        </g>
        <g transform="matrix(1.80545,-3.20489e-17,-3.25273e-17,1.55077,-4241.05,-3388.95)">
            <path d="M6225,5709C6518,5741 6188,6009 6148,6006C6107,6002 5354,5999 4475,5999C2893,5998 2875,5998 2833,5978C2783,5955 2750,5917 2750,5884C2750,5849 2809,5794 2860,5780C2891,5771 2948,5769 3048,5774C3208,5781 3765,5768 4275,5745C4592,5731 5045,5719 5800,5704C6017,5699 6149,5701 6225,5709Z" style="fill:url(#_Linear12);"/>
        </g>
        <g transform="matrix(2.08214,-6.6066e-17,-6.64127e-17,1.55077,-5658.63,-2636.46)">
            <path d="M6225,5709C6518,5741 6188,6009 6148,6006C6127.91,6004.04 4923.27,5999 4475,5999C2893,5998 2875,5998 2833,5978C2783,5955 2750,5917 2750,5884C2750,5849 2809,5794 2860,5780C2891,5771 2948,5769 3048,5774C3208,5781 3765,5768 4275,5745C4592,5731 5045,5719 5800,5704C6017,5699 6149,5701 6225,5709Z" style="fill:url(#_Linear13);"/>
        </g>
    </g>
    <defs>
        <linearGradient id="_Linear1" x1="0" y1="0" x2="1" y2="0" gradientUnits="userSpaceOnUse" gradientTransform="matrix(6921.88,60.9012,61.2207,-6885.76,-4353.98,11638.9)"><stop offset="0" style="stop-color:rgb(0,150,255);stop-opacity:1"/><stop offset="0.63" style="stop-color:rgb(0,140,239);stop-opacity:1"/><stop offset="0.83" style="stop-color:rgb(0,116,198);stop-opacity:1"/><stop offset="1" style="stop-color:rgb(0,90,153);stop-opacity:1"/></linearGradient>
        <linearGradient id="_Linear2" x1="0" y1="0" x2="1" y2="0" gradientUnits="userSpaceOnUse" gradientTransform="matrix(6921.88,60.9012,61.2207,-6885.76,122.45,6851.43)"><stop offset="0" style="stop-color:rgb(0,150,255);stop-opacity:1"/><stop offset="0.63" style="stop-color:rgb(0,140,239);stop-opacity:1"/><stop offset="0.83" style="stop-color:rgb(0,116,198);stop-opacity:1"/><stop offset="1" style="stop-color:rgb(0,90,153);stop-opacity:1"/></linearGradient>
        <linearGradient id="_Linear3" x1="0" y1="0" x2="1" y2="0" gradientUnits="userSpaceOnUse" gradientTransform="matrix(6921.88,60.9012,61.2207,-6885.76,122.45,6851.43)"><stop offset="0" style="stop-color:rgb(0,150,255);stop-opacity:1"/><stop offset="0.63" style="stop-color:rgb(0,140,239);stop-opacity:1"/><stop offset="0.83" style="stop-color:rgb(0,116,198);stop-opacity:1"/><stop offset="1" style="stop-color:rgb(0,90,153);stop-opacity:1"/></linearGradient>
        <linearGradient id="_Linear4" x1="0" y1="0" x2="1" y2="0" gradientUnits="userSpaceOnUse" gradientTransform="matrix(6921.88,60.9012,61.2207,-6885.76,122.45,6851.43)"><stop offset="0" style="stop-color:rgb(0,150,255);stop-opacity:1"/><stop offset="0.63" style="stop-color:rgb(0,140,239);stop-opacity:1"/><stop offset="0.83" style="stop-color:rgb(0,116,198);stop-opacity:1"/><stop offset="1" style="stop-color:rgb(0,90,153);stop-opacity:1"/></linearGradient>
        <linearGradient id="_Linear5" x1="0" y1="0" x2="1" y2="0" gradientUnits="userSpaceOnUse" gradientTransform="matrix(6921.88,60.9012,61.2207,-6885.76,122.45,6851.43)"><stop offset="0" style="stop-color:rgb(0,150,255);stop-opacity:1"/><stop offset="0.63" style="stop-color:rgb(0,140,239);stop-opacity:1"/><stop offset="0.83" style="stop-color:rgb(0,116,198);stop-opacity:1"/><stop offset="1" style="stop-color:rgb(0,90,153);stop-opacity:1"/></linearGradient>
        <linearGradient id="_Linear6" x1="0" y1="0" x2="1" y2="0" gradientUnits="userSpaceOnUse" gradientTransform="matrix(6921.88,60.9012,61.2207,-6885.76,122.45,6851.43)"><stop offset="0" style="stop-color:rgb(0,150,255);stop-opacity:1"/><stop offset="0.63" style="stop-color:rgb(0,140,239);stop-opacity:1"/><stop offset="0.83" style="stop-color:rgb(0,116,198);stop-opacity:1"/><stop offset="1" style="stop-color:rgb(0,90,153);stop-opacity:1"/></linearGradient>
        <linearGradient id="_Linear7" x1="0" y1="0" x2="1" y2="0" gradientUnits="userSpaceOnUse" gradientTransform="matrix(6921.88,60.9012,61.2207,-6885.76,122.45,6851.43)"><stop offset="0" style="stop-color:rgb(0,150,255);stop-opacity:1"/><stop offset="0.63" style="stop-color:rgb(0,140,239);stop-opacity:1"/><stop offset="0.83" style="stop-color:rgb(0,116,198);stop-opacity:1"/><stop offset="1" style="stop-color:rgb(0,90,153);stop-opacity:1"/></linearGradient>
        <linearGradient id="_Linear8" x1="0" y1="0" x2="1" y2="0" gradientUnits="userSpaceOnUse" gradientTransform="matrix(6921.88,60.9012,61.2207,-6885.76,122.45,6851.43)"><stop offset="0" style="stop-color:rgb(0,150,255);stop-opacity:1"/><stop offset="0.63" style="stop-color:rgb(0,140,239);stop-opacity:1"/><stop offset="0.83" style="stop-color:rgb(0,116,198);stop-opacity:1"/><stop offset="1" style="stop-color:rgb(0,90,153);stop-opacity:1"/></linearGradient>
        <linearGradient id="_Linear9" x1="0" y1="0" x2="1" y2="0" gradientUnits="userSpaceOnUse" gradientTransform="matrix(692.188,-6.09012,6.12207,688.576,12.245,338.857)"><stop offset="0" style="stop-color:rgb(0,150,255);stop-opacity:1"/><stop offset="0.63" style="stop-color:rgb(0,140,239);stop-opacity:1"/><stop offset="0.83" style="stop-color:rgb(0,116,198);stop-opacity:1"/><stop offset="1" style="stop-color:rgb(0,90,153);stop-opacity:1"/></linearGradient>
        <linearGradient id="_Linear10" x1="0" y1="0" x2="1" y2="0" gradientUnits="userSpaceOnUse" gradientTransform="matrix(692.188,-6.09012,6.12207,688.576,12.245,338.857)"><stop offset="0" style="stop-color:rgb(0,150,255);stop-opacity:1"/><stop offset="0.63" style="stop-color:rgb(0,140,239);stop-opacity:1"/><stop offset="0.83" style="stop-color:rgb(0,116,198);stop-opacity:1"/><stop offset="1" style="stop-color:rgb(0,90,153);stop-opacity:1"/></linearGradient>
        <linearGradient id="_Linear11" x1="0" y1="0" x2="1" y2="0" gradientUnits="userSpaceOnUse" gradientTransform="matrix(692.188,-6.09012,6.12207,688.576,12.245,338.857)"><stop offset="0" style="stop-color:rgb(0,150,255);stop-opacity:1"/><stop offset="0.63" style="stop-color:rgb(0,140,239);stop-opacity:1"/><stop offset="0.83" style="stop-color:rgb(0,116,198);stop-opacity:1"/><stop offset="1" style="stop-color:rgb(0,90,153);stop-opacity:1"/></linearGradient>
        <linearGradient id="_Linear12" x1="0" y1="0" x2="1" y2="0" gradientUnits="userSpaceOnUse" gradientTransform="matrix(5914.43,60.9012,52.3103,-6885.76,1401.67,6367.19)"><stop offset="0" style="stop-color:rgb(0,150,255);stop-opacity:1"/><stop offset="0.63" style="stop-color:rgb(0,140,239);stop-opacity:1"/><stop offset="0.83" style="stop-color:rgb(0,116,198);stop-opacity:1"/><stop offset="1" style="stop-color:rgb(0,90,153);stop-opacity:1"/></linearGradient>
        <linearGradient id="_Linear13" x1="0" y1="0" x2="1" y2="0" gradientUnits="userSpaceOnUse" gradientTransform="matrix(5128.47,60.9012,45.3588,-6885.76,1896.23,5881.95)"><stop offset="0" style="stop-color:rgb(0,150,255);stop-opacity:1"/><stop offset="0.63" style="stop-color:rgb(0,140,239);stop-opacity:1"/><stop offset="0.83" style="stop-color:rgb(0,116,198);stop-opacity:1"/><stop offset="1" style="stop-color:rgb(0,90,153);stop-opacity:1"/></linearGradient>
    </defs>
</svg>
